<?xml version="1.0" encoding="UTF-8" standalone="no"?>
<!DOCTYPE svg PUBLIC "-//W3C//DTD SVG 1.1//EN" "http://www.w3.org/Graphics/SVG/1.1/DTD/svg11.dtd">
<svg xmlns="http://www.w3.org/2000/svg" version="1.1" viewBox="0.00 0.00 1024.00 1024.00">
<g stroke-width="2.00" fill="none" stroke-linecap="butt">
<path stroke="#807975" vector-effect="non-scaling-stroke" d="
  M 436.71 300.34
  Q 411.30 308.26 387.99 321.12
  A 0.97 0.97 0.0 0 1 386.67 320.74
  Q 386.20 319.88 385.22 319.03
  C 370.57 306.26 354.16 298.98 335.63 293.65
  A 0.57 0.56 30.7 0 1 335.39 292.71
  Q 337.53 290.56 339.19 287.68
  C 361.49 248.85 336.74 207.84 312.93 177.87
  A 0.93 0.93 0.0 0 0 311.49 177.85
  C 300.98 190.31 290.32 202.21 280.68 215.41
  Q 274.96 223.24 271.92 229.23
  C 263.86 245.08 261.89 265.39 269.38 282.16
  A 0.12 0.12 0.0 0 1 269.27 282.33
  L 249.56 281.94
  Q 248.90 281.93 248.91 282.59
  C 249.16 298.24 249.25 315.26 252.25 330.27
  C 258.04 359.32 276.53 382.16 302.47 396.41
  Q 302.95 396.68 302.72 397.17
  Q 301.58 399.55 300.43 401.20
  C 267.58 448.66 251.00 504.21 255.73 561.82
  C 259.63 609.40 283.92 654.45 322.85 682.90
  Q 350.75 703.28 385.73 714.27
  Q 414.23 723.23 440.00 725.42
  C 474.22 728.33 506.45 727.95 543.75 727.37
  C 591.69 726.62 640.82 717.90 682.03 692.52
  C 730.61 662.59 759.82 614.31 763.77 557.50
  Q 766.99 511.19 751.44 467.05
  C 734.46 418.90 701.89 374.30 661.13 343.59
  Q 641.38 328.71 619.63 317.15
  A 0.64 0.64 0.0 0 1 619.52 316.10
  Q 625.46 311.09 631.12 305.89
  Q 631.92 305.15 632.99 304.95
  C 679.70 295.91 727.08 290.19 774.41 285.60
  Q 781.37 284.93 783.71 283.82
  C 794.96 278.50 790.60 260.07 777.25 261.48
  Q 759.63 263.34 742.01 265.20
  Q 695.55 270.09 649.90 277.87
  A 0.58 0.58 0.0 0 1 649.32 276.97
  C 657.12 265.41 664.32 250.09 667.42 237.45
  C 672.69 215.99 669.68 193.72 662.01 173.15
  A 1.16 1.15 89.3 0 0 661.33 172.48
  Q 661.12 172.40 660.90 172.59
  Q 660.69 172.78 660.55 172.84
  Q 640.01 181.52 620.42 191.89
  A 0.72 0.72 0.0 0 1 619.50 191.66
  Q 618.69 190.46 617.43 189.31
  Q 585.97 160.64 543.00 160.03
  Q 497.96 159.39 464.06 185.23
  C 432.08 209.59 413.65 250.86 432.02 289.83
  Q 434.39 294.85 436.95 299.76
  Q 437.18 300.19 436.71 300.34"
/>
<path stroke="#807975" vector-effect="non-scaling-stroke" d="
  M 365.08 820.97
  C 364.12 834.94 355.26 850.88 340.51 852.82
  Q 333.70 853.72 331.74 854.29
  C 318.84 858.05 319.46 876.25 331.37 881.27
  Q 335.21 882.88 341.32 882.28
  C 366.22 879.85 385.40 860.47 391.48 836.76
  Q 393.77 827.87 395.05 818.78
  C 396.55 808.14 396.14 797.77 385.81 793.31
  Q 382.74 791.98 376.99 791.99
  Q 352.13 792.00 327.38 792.01
  A 0.56 0.56 0.0 0 1 326.84 791.30
  Q 329.99 779.76 333.05 768.29
  Q 334.45 763.00 333.94 758.52
  C 332.14 742.68 308.66 742.38 305.17 757.75
  Q 299.20 784.10 296.45 794.54
  C 294.24 802.96 291.78 811.95 300.24 818.18
  Q 303.64 820.67 307.75 820.74
  Q 320.78 820.96 364.64 820.50
  Q 365.12 820.49 365.08 820.97"
/>
<path stroke="#807975" vector-effect="non-scaling-stroke" d="
  M 696.13 767.45
  Q 696.28 763.45 695.68 759.52
  C 692.94 741.31 667.30 743.22 666.67 762.03
  Q 666.58 764.66 666.40 767.46
  Q 666.36 768.02 665.80 768.02
  Q 652.55 767.96 639.31 768.06
  Q 631.21 768.11 630.22 768.28
  C 616.90 770.49 613.68 788.53 625.62 794.90
  C 628.74 796.56 633.10 796.51 636.75 796.44
  Q 650.62 796.18 664.21 796.25
  A 0.52 0.51 -78.3 0 1 664.68 796.97
  C 659.46 809.05 649.95 817.52 638.35 823.32
  Q 633.06 825.96 628.05 829.06
  C 619.63 834.26 618.84 845.63 626.34 852.15
  C 632.10 857.16 639.10 856.39 645.23 853.45
  Q 660.70 846.03 672.64 833.92
  A 0.52 0.52 0.0 0 1 673.40 833.92
  Q 678.28 839.08 683.31 844.19
  C 690.21 851.20 699.17 858.49 709.27 851.33
  C 714.14 847.88 717.52 841.28 715.77 835.29
  C 714.55 831.13 710.62 827.36 707.05 824.71
  Q 699.39 819.01 691.83 813.16
  Q 690.77 812.34 689.90 811.19
  Q 689.57 810.77 689.82 810.29
  Q 693.17 803.78 694.80 796.64
  Q 694.92 796.09 695.48 796.11
  Q 709.62 796.45 723.75 796.27
  C 739.29 796.08 743.52 775.29 729.67 769.24
  Q 726.73 767.96 720.66 768.02
  Q 708.66 768.16 696.67 768.01
  Q 696.11 768.01 696.13 767.45"
/>
<path stroke="#807975" vector-effect="non-scaling-stroke" d="
  M 538.82 796.02
  Q 538.57 811.29 538.64 826.75
  C 538.77 855.27 503.15 867.80 484.08 847.42
  C 475.34 838.08 475.58 828.34 476.20 816.25
  Q 476.52 810.10 475.20 806.03
  C 471.05 793.21 448.57 795.12 447.48 809.50
  Q 446.85 817.81 447.36 830.04
  C 447.76 839.56 449.05 846.35 453.55 853.95
  C 477.24 894.03 533.22 896.46 558.59 857.14
  C 566.67 844.63 567.32 833.47 567.29 819.75
  Q 567.26 801.12 567.16 782.49
  Q 567.10 771.60 558.07 767.87
  Q 554.75 766.50 548.23 766.50
  Q 507.76 766.45 467.29 766.51
  Q 460.30 766.52 457.35 767.61
  C 445.61 771.97 445.38 788.53 456.34 793.90
  Q 459.07 795.24 463.86 795.32
  Q 501.18 795.99 538.36 795.55
  A 0.46 0.46 0.0 0 1 538.82 796.02"
/>
<path stroke="#6d635f" vector-effect="non-scaling-stroke" d="
  M 560.75 227.49
  L 578.44 229.87
  Q 578.95 229.93 579.28 229.53
  C 581.88 226.35 584.55 222.55 586.90 219.85
  Q 593.22 212.60 600.40 206.36
  A 0.66 0.66 0.0 0 0 600.38 205.34
  L 592.26 198.96"
/>
<path stroke="#81878a" vector-effect="non-scaling-stroke" d="
  M 592.26 198.96
  C 590.96 198.08 589.64 196.90 588.42 196.15
  C 561.13 179.33 529.81 178.29 500.25 190.24
  C 467.69 203.40 439.23 236.66 449.33 273.88
  Q 449.44 274.28 449.85 274.26
  Q 450.07 274.24 450.23 274.01
  C 474.57 238.63 518.87 224.50 560.75 227.49"
/>
<path stroke="#ebdbd4" vector-effect="non-scaling-stroke" d="
  M 592.26 198.96
  Q 592.10 199.99 590.86 200.56
  Q 589.52 201.18 589.09 201.49
  C 576.36 210.79 569.70 217.68 560.75 227.49"
/>
<path stroke="#6d635f" vector-effect="non-scaling-stroke" d="
  M 640.20 208.94
  Q 619.11 217.65 604.91 235.35
  Q 604.49 235.87 605.12 236.08
  L 624.10 242.41"
/>
<path stroke="#81878a" vector-effect="non-scaling-stroke" d="
  M 624.10 242.41
  L 635.40 247.25
  Q 635.88 247.45 636.23 247.07
  Q 638.21 244.89 639.43 242.21
  Q 646.88 225.85 643.70 208.03
  Q 643.60 207.50 643.07 207.61
  Q 641.60 207.94 640.20 208.94"
/>
<path stroke="#ebdbd4" vector-effect="non-scaling-stroke" d="
  M 624.10 242.41
  Q 624.11 241.63 624.22 241.48
  C 631.15 231.79 636.21 220.13 640.20 208.94"
/>
<path stroke="#807975" vector-effect="non-scaling-stroke" d="
  M 304.77 226.47
  C 296.61 235.96 290.32 248.36 290.86 260.99
  Q 291.39 273.34 301.45 278.36"
/>
<path stroke="#6d635f" vector-effect="non-scaling-stroke" d="
  M 301.45 278.36
  C 309.99 280.79 317.09 276.76 319.66 268.96
  C 324.88 253.10 319.32 234.07 310.15 220.63
  Q 309.81 220.14 309.45 220.60
  L 304.77 226.47"
/>
<path stroke="#eacdbf" vector-effect="non-scaling-stroke" d="
  M 301.45 278.36
  Q 304.59 274.17 305.79 269.82
  C 309.38 256.91 309.59 243.95 305.68 231.24
  Q 305.01 229.08 304.77 226.47"
/>
<path stroke="#81878a" vector-effect="non-scaling-stroke" d="
  M 587.30 312.29
  C 603.21 304.99 618.63 291.66 627.18 275.31
  A 1.09 1.09 0.0 0 0 626.85 273.92
  Q 619.54 268.65 611.23 264.71
  C 574.38 247.27 529.45 244.19 493.22 264.16
  Q 472.33 275.67 461.70 296.26
  Q 461.19 297.24 461.98 298.01
  Q 472.33 308.23 484.71 313.37
  C 516.60 326.61 556.05 326.63 587.30 312.29"
/>
<path stroke="#6d635f" vector-effect="non-scaling-stroke" d="
  M 302.89 366.89
  L 316.87 377.08
  Q 317.29 377.39 317.63 377.00
  Q 327.93 365.21 332.56 360.56
  C 341.64 351.43 351.72 343.55 361.99 335.87
  A 0.50 0.50 0.0 0 0 361.97 335.06
  L 353.78 329.70"
/>
<path stroke="#807975" vector-effect="non-scaling-stroke" d="
  M 353.78 329.70
  C 338.14 320.98 322.26 318.33 305.63 314.50
  C 297.17 312.55 288.69 310.10 280.24 307.82
  Q 278.40 307.33 276.68 307.12
  A 0.51 0.51 0.0 0 0 276.12 307.64
  C 276.91 331.91 284.00 351.15 302.89 366.89"
/>
<path stroke="#eacdbf" vector-effect="non-scaling-stroke" d="
  M 353.78 329.70
  Q 351.97 329.78 350.18 329.64
  Q 348.26 329.48 346.73 330.03
  C 328.44 336.55 313.95 347.35 302.85 363.56
  Q 302.57 363.97 302.62 364.47
  L 302.89 366.89"
/>
<path stroke="#81878a" vector-effect="non-scaling-stroke" d="
  M 310.28 445.88
  C 307.25 452.35 303.34 459.72 301.30 466.50
  Q 301.24 466.68 301.43 466.81
  Q 301.71 467.02 301.91 466.73
  C 320.24 439.11 343.68 419.90 368.20 401.02
  C 399.69 376.77 430.28 351.75 464.99 332.06
  Q 465.46 331.80 465.07 331.43
  Q 462.52 329.09 459.83 326.94
  Q 458.49 325.87 457.01 326.35
  Q 444.57 330.37 429.75 336.31
  C 376.59 357.64 334.76 393.69 310.28 445.88"
/>
<path stroke="#81878a" vector-effect="non-scaling-stroke" d="
  M 571.48 345.39
  Q 554.15 349.89 537.11 351.90
  Q 534.68 352.19 537.06 352.77
  C 587.89 365.24 632.35 393.14 669.16 430.10
  Q 678.02 439.00 687.10 448.51"
/>
<path stroke="#6d635f" vector-effect="non-scaling-stroke" d="
  M 687.10 448.51
  Q 696.05 458.88 704.87 470.10
  Q 706.99 472.80 710.33 472.07
  C 718.20 470.33 717.18 464.57 714.41 458.77
  C 689.12 405.69 647.06 363.97 593.28 339.97
  C 591.99 339.40 590.95 338.62 589.48 339.19
  Q 578.81 343.31 571.48 345.39"
/>
<path stroke="#ebdbd4" vector-effect="non-scaling-stroke" d="
  M 687.10 448.51
  Q 686.85 446.86 685.68 445.25
  C 683.40 442.13 682.17 438.62 680.59 435.14
  C 668.07 407.59 642.82 383.52 617.48 367.83
  Q 599.45 356.66 590.96 353.29
  Q 581.27 349.44 571.48 345.39"
/>
<path stroke="#6d635f" vector-effect="non-scaling-stroke" d="
  M 611.73 687.35
  Q 634.23 682.00 654.25 671.73
  C 695.30 650.67 725.82 611.88 731.38 565.74
  Q 734.31 541.46 730.57 516.75
  A 0.48 0.48 0.0 0 0 729.73 516.52
  C 723.96 523.60 714.48 523.82 707.84 517.90
  Q 704.22 514.68 699.95 510.18"
/>
<path stroke="#81878a" vector-effect="non-scaling-stroke" d="
  M 699.95 510.18
  Q 685.67 490.55 676.91 479.59
  Q 659.31 457.57 636.02 436.50
  C 606.34 409.67 572.54 390.11 533.70 380.09
  C 531.96 379.64 529.83 379.45 527.97 378.97
  A 0.75 0.74 -80.4 0 0 527.04 379.64
  C 524.07 419.71 522.16 459.87 520.17 500.00
  C 519.14 520.79 490.59 520.04 491.78 499.50
  Q 495.03 443.17 498.26 386.85
  C 498.97 374.53 500.36 362.66 501.74 350.55
  Q 501.77 350.27 501.50 350.20
  C 498.20 349.43 495.48 348.76 492.17 350.27
  Q 458.20 365.70 426.98 389.98
  Q 395.77 414.25 364.70 438.71
  C 342.91 455.88 324.85 476.22 314.38 501.28
  C 310.37 510.87 305.98 527.91 291.35 524.82
  Q 289.85 524.51 288.39 524.17
  Q 287.91 524.06 287.86 524.55
  Q 285.49 545.92 287.77 565.25
  C 291.69 598.55 308.85 629.72 334.69 651.32
  C 377.42 687.02 431.76 696.02 486.25 696.93
  C 524.20 697.55 563.62 697.72 602.99 689.62
  Q 607.77 688.64 611.73 687.35"
/>
<path stroke="#ebdbd4" vector-effect="non-scaling-stroke" d="
  M 699.95 510.18
  Q 703.02 536.10 700.89 561.00
  C 697.04 605.93 676.87 645.26 639.32 671.33
  Q 631.27 676.92 622.73 681.75
  Q 617.67 684.61 611.73 687.35"
/>
<path stroke="#81878a" vector-effect="non-scaling-stroke" d="
  M 466.49 437.02
  Q 474.25 419.83 481.84 402.59
  C 490.79 382.25 463.97 373.20 456.33 391.09
  Q 448.78 408.77 441.04 426.37
  Q 425.05 462.76 405.93 497.60
  Q 401.60 505.48 405.91 512.51
  C 408.84 517.29 415.15 520.30 420.68 518.76
  C 426.65 517.10 429.67 512.43 432.54 506.83
  Q 452.80 467.30 466.49 437.02"
/>
<path stroke="#81878a" vector-effect="non-scaling-stroke" d="
  M 594.4309 442.7364
  A 13.66 13.66 0.0 0 0 577.8201 432.8737
  L 576.8705 433.1157
  A 13.66 13.66 0.0 0 0 567.0077 449.7265
  L 578.8291 496.1036
  A 13.66 13.66 0.0 0 0 595.4399 505.9663
  L 596.3895 505.7243
  A 13.66 13.66 0.0 0 0 606.2523 489.1135
  L 594.4309 442.7364"
/>
</g>
<path fill="#fde3d4" d="
  M 0.00 0.00
  L 1024.00 0.00
  L 1024.00 1024.00
  L 0.00 1024.00
  L 0.00 0.00
  Z
  M 436.71 300.34
  Q 411.30 308.26 387.99 321.12
  A 0.97 0.97 0.0 0 1 386.67 320.74
  Q 386.20 319.88 385.22 319.03
  C 370.57 306.26 354.16 298.98 335.63 293.65
  A 0.57 0.56 30.7 0 1 335.39 292.71
  Q 337.53 290.56 339.19 287.68
  C 361.49 248.85 336.74 207.84 312.93 177.87
  A 0.93 0.93 0.0 0 0 311.49 177.85
  C 300.98 190.31 290.32 202.21 280.68 215.41
  Q 274.96 223.24 271.92 229.23
  C 263.86 245.08 261.89 265.39 269.38 282.16
  A 0.12 0.12 0.0 0 1 269.27 282.33
  L 249.56 281.94
  Q 248.90 281.93 248.91 282.59
  C 249.16 298.24 249.25 315.26 252.25 330.27
  C 258.04 359.32 276.53 382.16 302.47 396.41
  Q 302.95 396.68 302.72 397.17
  Q 301.58 399.55 300.43 401.20
  C 267.58 448.66 251.00 504.21 255.73 561.82
  C 259.63 609.40 283.92 654.45 322.85 682.90
  Q 350.75 703.28 385.73 714.27
  Q 414.23 723.23 440.00 725.42
  C 474.22 728.33 506.45 727.95 543.75 727.37
  C 591.69 726.62 640.82 717.90 682.03 692.52
  C 730.61 662.59 759.82 614.31 763.77 557.50
  Q 766.99 511.19 751.44 467.05
  C 734.46 418.90 701.89 374.30 661.13 343.59
  Q 641.38 328.71 619.63 317.15
  A 0.64 0.64 0.0 0 1 619.52 316.10
  Q 625.46 311.09 631.12 305.89
  Q 631.92 305.15 632.99 304.95
  C 679.70 295.91 727.08 290.19 774.41 285.60
  Q 781.37 284.93 783.71 283.82
  C 794.96 278.50 790.60 260.07 777.25 261.48
  Q 759.63 263.34 742.01 265.20
  Q 695.55 270.09 649.90 277.87
  A 0.58 0.58 0.0 0 1 649.32 276.97
  C 657.12 265.41 664.32 250.09 667.42 237.45
  C 672.69 215.99 669.68 193.72 662.01 173.15
  A 1.16 1.15 89.3 0 0 661.33 172.48
  Q 661.12 172.40 660.90 172.59
  Q 660.69 172.78 660.55 172.84
  Q 640.01 181.52 620.42 191.89
  A 0.72 0.72 0.0 0 1 619.50 191.66
  Q 618.69 190.46 617.43 189.31
  Q 585.97 160.64 543.00 160.03
  Q 497.96 159.39 464.06 185.23
  C 432.08 209.59 413.65 250.86 432.02 289.83
  Q 434.39 294.85 436.95 299.76
  Q 437.18 300.19 436.71 300.34
  Z
  M 365.08 820.97
  C 364.12 834.94 355.26 850.88 340.51 852.82
  Q 333.70 853.72 331.74 854.29
  C 318.84 858.05 319.46 876.25 331.37 881.27
  Q 335.21 882.88 341.32 882.28
  C 366.22 879.85 385.40 860.47 391.48 836.76
  Q 393.77 827.87 395.05 818.78
  C 396.55 808.14 396.14 797.77 385.81 793.31
  Q 382.74 791.98 376.99 791.99
  Q 352.13 792.00 327.38 792.01
  A 0.56 0.56 0.0 0 1 326.84 791.30
  Q 329.99 779.76 333.05 768.29
  Q 334.45 763.00 333.94 758.52
  C 332.14 742.68 308.66 742.38 305.17 757.75
  Q 299.20 784.10 296.45 794.54
  C 294.24 802.96 291.78 811.95 300.24 818.18
  Q 303.64 820.67 307.75 820.74
  Q 320.78 820.96 364.64 820.50
  Q 365.12 820.49 365.08 820.97
  Z
  M 696.13 767.45
  Q 696.28 763.45 695.68 759.52
  C 692.94 741.31 667.30 743.22 666.67 762.03
  Q 666.58 764.66 666.40 767.46
  Q 666.36 768.02 665.80 768.02
  Q 652.55 767.96 639.31 768.06
  Q 631.21 768.11 630.22 768.28
  C 616.90 770.49 613.68 788.53 625.62 794.90
  C 628.74 796.56 633.10 796.51 636.75 796.44
  Q 650.62 796.18 664.21 796.25
  A 0.52 0.51 -78.3 0 1 664.68 796.97
  C 659.46 809.05 649.95 817.52 638.35 823.32
  Q 633.06 825.96 628.05 829.06
  C 619.63 834.26 618.84 845.63 626.34 852.15
  C 632.10 857.16 639.10 856.39 645.23 853.45
  Q 660.70 846.03 672.64 833.92
  A 0.52 0.52 0.0 0 1 673.40 833.92
  Q 678.28 839.08 683.31 844.19
  C 690.21 851.20 699.17 858.49 709.27 851.33
  C 714.14 847.88 717.52 841.28 715.77 835.29
  C 714.55 831.13 710.62 827.36 707.05 824.71
  Q 699.39 819.01 691.83 813.16
  Q 690.77 812.34 689.90 811.19
  Q 689.57 810.77 689.82 810.29
  Q 693.17 803.78 694.80 796.64
  Q 694.92 796.09 695.48 796.11
  Q 709.62 796.45 723.75 796.27
  C 739.29 796.08 743.52 775.29 729.67 769.24
  Q 726.73 767.96 720.66 768.02
  Q 708.66 768.16 696.67 768.01
  Q 696.11 768.01 696.13 767.45
  Z
  M 538.82 796.02
  Q 538.57 811.29 538.64 826.75
  C 538.77 855.27 503.15 867.80 484.08 847.42
  C 475.34 838.08 475.58 828.34 476.20 816.25
  Q 476.52 810.10 475.20 806.03
  C 471.05 793.21 448.57 795.12 447.48 809.50
  Q 446.85 817.81 447.36 830.04
  C 447.76 839.56 449.05 846.35 453.55 853.95
  C 477.24 894.03 533.22 896.46 558.59 857.14
  C 566.67 844.63 567.32 833.47 567.29 819.75
  Q 567.26 801.12 567.16 782.49
  Q 567.10 771.60 558.07 767.87
  Q 554.75 766.50 548.23 766.50
  Q 507.76 766.45 467.29 766.51
  Q 460.30 766.52 457.35 767.61
  C 445.61 771.97 445.38 788.53 456.34 793.90
  Q 459.07 795.24 463.86 795.32
  Q 501.18 795.99 538.36 795.55
  A 0.46 0.46 0.0 0 1 538.82 796.02
  Z"
/>
<path fill="#030e15" d="
  M 436.95 299.76
  Q 434.39 294.85 432.02 289.83
  C 413.65 250.86 432.08 209.59 464.06 185.23
  Q 497.96 159.39 543.00 160.03
  Q 585.97 160.64 617.43 189.31
  Q 618.69 190.46 619.50 191.66
  A 0.72 0.72 0.0 0 0 620.42 191.89
  Q 640.01 181.52 660.55 172.84
  Q 660.69 172.78 660.90 172.59
  Q 661.12 172.40 661.33 172.48
  A 1.16 1.15 89.3 0 1 662.01 173.15
  C 669.68 193.72 672.69 215.99 667.42 237.45
  C 664.32 250.09 657.12 265.41 649.32 276.97
  A 0.58 0.58 0.0 0 0 649.90 277.87
  Q 695.55 270.09 742.01 265.20
  Q 759.63 263.34 777.25 261.48
  C 790.60 260.07 794.96 278.50 783.71 283.82
  Q 781.37 284.93 774.41 285.60
  C 727.08 290.19 679.70 295.91 632.99 304.95
  Q 631.92 305.15 631.12 305.89
  Q 625.46 311.09 619.52 316.10
  A 0.64 0.64 0.0 0 0 619.63 317.15
  Q 641.38 328.71 661.13 343.59
  C 701.89 374.30 734.46 418.90 751.44 467.05
  Q 766.99 511.19 763.77 557.50
  C 759.82 614.31 730.61 662.59 682.03 692.52
  C 640.82 717.90 591.69 726.62 543.75 727.37
  C 506.45 727.95 474.22 728.33 440.00 725.42
  Q 414.23 723.23 385.73 714.27
  Q 350.75 703.28 322.85 682.90
  C 283.92 654.45 259.63 609.40 255.73 561.82
  C 251.00 504.21 267.58 448.66 300.43 401.20
  Q 301.58 399.55 302.72 397.17
  Q 302.95 396.68 302.47 396.41
  C 276.53 382.16 258.04 359.32 252.25 330.27
  C 249.25 315.26 249.16 298.24 248.91 282.59
  Q 248.90 281.93 249.56 281.94
  L 269.27 282.33
  A 0.12 0.12 0.0 0 0 269.38 282.16
  C 261.89 265.39 263.86 245.08 271.92 229.23
  Q 274.96 223.24 280.68 215.41
  C 290.32 202.21 300.98 190.31 311.49 177.85
  A 0.93 0.93 0.0 0 1 312.93 177.87
  C 336.74 207.84 361.49 248.85 339.19 287.68
  Q 337.53 290.56 335.39 292.71
  A 0.57 0.56 30.7 0 0 335.63 293.65
  C 354.16 298.98 370.57 306.26 385.22 319.03
  Q 386.20 319.88 386.67 320.74
  A 0.97 0.97 0.0 0 0 387.99 321.12
  Q 411.30 308.26 436.71 300.34
  Q 437.18 300.19 436.95 299.76
  Z
  M 560.75 227.49
  L 578.44 229.87
  Q 578.95 229.93 579.28 229.53
  C 581.88 226.35 584.55 222.55 586.90 219.85
  Q 593.22 212.60 600.40 206.36
  A 0.66 0.66 0.0 0 0 600.38 205.34
  L 592.26 198.96
  C 590.96 198.08 589.64 196.90 588.42 196.15
  C 561.13 179.33 529.81 178.29 500.25 190.24
  C 467.69 203.40 439.23 236.66 449.33 273.88
  Q 449.44 274.28 449.85 274.26
  Q 450.07 274.24 450.23 274.01
  C 474.57 238.63 518.87 224.50 560.75 227.49
  Z
  M 640.20 208.94
  Q 619.11 217.65 604.91 235.35
  Q 604.49 235.87 605.12 236.08
  L 624.10 242.41
  L 635.40 247.25
  Q 635.88 247.45 636.23 247.07
  Q 638.21 244.89 639.43 242.21
  Q 646.88 225.85 643.70 208.03
  Q 643.60 207.50 643.07 207.61
  Q 641.60 207.94 640.20 208.94
  Z
  M 304.77 226.47
  C 296.61 235.96 290.32 248.36 290.86 260.99
  Q 291.39 273.34 301.45 278.36
  C 309.99 280.79 317.09 276.76 319.66 268.96
  C 324.88 253.10 319.32 234.07 310.15 220.63
  Q 309.81 220.14 309.45 220.60
  L 304.77 226.47
  Z
  M 587.30 312.29
  C 603.21 304.99 618.63 291.66 627.18 275.31
  A 1.09 1.09 0.0 0 0 626.85 273.92
  Q 619.54 268.65 611.23 264.71
  C 574.38 247.27 529.45 244.19 493.22 264.16
  Q 472.33 275.67 461.70 296.26
  Q 461.19 297.24 461.98 298.01
  Q 472.33 308.23 484.71 313.37
  C 516.60 326.61 556.05 326.63 587.30 312.29
  Z
  M 302.89 366.89
  L 316.87 377.08
  Q 317.29 377.39 317.63 377.00
  Q 327.93 365.21 332.56 360.56
  C 341.64 351.43 351.72 343.55 361.99 335.87
  A 0.50 0.50 0.0 0 0 361.97 335.06
  L 353.78 329.70
  C 338.14 320.98 322.26 318.33 305.63 314.50
  C 297.17 312.55 288.69 310.10 280.24 307.82
  Q 278.40 307.33 276.68 307.12
  A 0.51 0.51 0.0 0 0 276.12 307.64
  C 276.91 331.91 284.00 351.15 302.89 366.89
  Z
  M 310.28 445.88
  C 307.25 452.35 303.34 459.72 301.30 466.50
  Q 301.24 466.68 301.43 466.81
  Q 301.71 467.02 301.91 466.73
  C 320.24 439.11 343.68 419.90 368.20 401.02
  C 399.69 376.77 430.28 351.75 464.99 332.06
  Q 465.46 331.80 465.07 331.43
  Q 462.52 329.09 459.83 326.94
  Q 458.49 325.87 457.01 326.35
  Q 444.57 330.37 429.75 336.31
  C 376.59 357.64 334.76 393.69 310.28 445.88
  Z
  M 571.48 345.39
  Q 554.15 349.89 537.11 351.90
  Q 534.68 352.19 537.06 352.77
  C 587.89 365.24 632.35 393.14 669.16 430.10
  Q 678.02 439.00 687.10 448.51
  Q 696.05 458.88 704.87 470.10
  Q 706.99 472.80 710.33 472.07
  C 718.20 470.33 717.18 464.57 714.41 458.77
  C 689.12 405.69 647.06 363.97 593.28 339.97
  C 591.99 339.40 590.95 338.62 589.48 339.19
  Q 578.81 343.31 571.48 345.39
  Z
  M 611.73 687.35
  Q 634.23 682.00 654.25 671.73
  C 695.30 650.67 725.82 611.88 731.38 565.74
  Q 734.31 541.46 730.57 516.75
  A 0.48 0.48 0.0 0 0 729.73 516.52
  C 723.96 523.60 714.48 523.82 707.84 517.90
  Q 704.22 514.68 699.95 510.18
  Q 685.67 490.55 676.91 479.59
  Q 659.31 457.57 636.02 436.50
  C 606.34 409.67 572.54 390.11 533.70 380.09
  C 531.96 379.64 529.83 379.45 527.97 378.97
  A 0.75 0.74 -80.4 0 0 527.04 379.64
  C 524.07 419.71 522.16 459.87 520.17 500.00
  C 519.14 520.79 490.59 520.04 491.78 499.50
  Q 495.03 443.17 498.26 386.85
  C 498.97 374.53 500.36 362.66 501.74 350.55
  Q 501.77 350.27 501.50 350.20
  C 498.20 349.43 495.48 348.76 492.17 350.27
  Q 458.20 365.70 426.98 389.98
  Q 395.77 414.25 364.70 438.71
  C 342.91 455.88 324.85 476.22 314.38 501.28
  C 310.37 510.87 305.98 527.91 291.35 524.82
  Q 289.85 524.51 288.39 524.17
  Q 287.91 524.06 287.86 524.55
  Q 285.49 545.92 287.77 565.25
  C 291.69 598.55 308.85 629.72 334.69 651.32
  C 377.42 687.02 431.76 696.02 486.25 696.93
  C 524.20 697.55 563.62 697.72 602.99 689.62
  Q 607.77 688.64 611.73 687.35
  Z"
/>
<path fill="#ffffff" d="
  M 592.26 198.96
  Q 592.10 199.99 590.86 200.56
  Q 589.52 201.18 589.09 201.49
  C 576.36 210.79 569.70 217.68 560.75 227.49
  C 518.87 224.50 474.57 238.63 450.23 274.01
  Q 450.07 274.24 449.85 274.26
  Q 449.44 274.28 449.33 273.88
  C 439.23 236.66 467.69 203.40 500.25 190.24
  C 529.81 178.29 561.13 179.33 588.42 196.15
  C 589.64 196.90 590.96 198.08 592.26 198.96
  Z"
/>
<path fill="#d7b7a9" d="
  M 592.26 198.96
  L 600.38 205.34
  A 0.66 0.66 0.0 0 1 600.40 206.36
  Q 593.22 212.60 586.90 219.85
  C 584.55 222.55 581.88 226.35 579.28 229.53
  Q 578.95 229.93 578.44 229.87
  L 560.75 227.49
  C 569.70 217.68 576.36 210.79 589.09 201.49
  Q 589.52 201.18 590.86 200.56
  Q 592.10 199.99 592.26 198.96
  Z"
/>
<path fill="#ffffff" d="
  M 624.10 242.41
  Q 624.11 241.63 624.22 241.48
  C 631.15 231.79 636.21 220.13 640.20 208.94
  Q 641.60 207.94 643.07 207.61
  Q 643.60 207.50 643.70 208.03
  Q 646.88 225.85 639.43 242.21
  Q 638.21 244.89 636.23 247.07
  Q 635.88 247.45 635.40 247.25
  L 624.10 242.41
  Z"
/>
<path fill="#d7b7a9" d="
  M 640.20 208.94
  C 636.21 220.13 631.15 231.79 624.22 241.48
  Q 624.11 241.63 624.10 242.41
  L 605.12 236.08
  Q 604.49 235.87 604.91 235.35
  Q 619.11 217.65 640.20 208.94
  Z"
/>
<path fill="#d7b7a9" d="
  M 301.45 278.36
  Q 304.59 274.17 305.79 269.82
  C 309.38 256.91 309.59 243.95 305.68 231.24
  Q 305.01 229.08 304.77 226.47
  L 309.45 220.60
  Q 309.81 220.14 310.15 220.63
  C 319.32 234.07 324.88 253.10 319.66 268.96
  C 317.09 276.76 309.99 280.79 301.45 278.36
  Z"
/>
<path fill="#fde3d4" d="
  M 304.77 226.47
  Q 305.01 229.08 305.68 231.24
  C 309.59 243.95 309.38 256.91 305.79 269.82
  Q 304.59 274.17 301.45 278.36
  Q 291.39 273.34 290.86 260.99
  C 290.32 248.36 296.61 235.96 304.77 226.47
  Z"
/>
<path fill="#ffffff" d="
  M 587.30 312.29
  C 556.05 326.63 516.60 326.61 484.71 313.37
  Q 472.33 308.23 461.98 298.01
  Q 461.19 297.24 461.70 296.26
  Q 472.33 275.67 493.22 264.16
  C 529.45 244.19 574.38 247.27 611.23 264.71
  Q 619.54 268.65 626.85 273.92
  A 1.09 1.09 0.0 0 1 627.18 275.31
  C 618.63 291.66 603.21 304.99 587.30 312.29
  Z"
/>
<path fill="#fde3d4" d="
  M 353.78 329.70
  Q 351.97 329.78 350.18 329.64
  Q 348.26 329.48 346.73 330.03
  C 328.44 336.55 313.95 347.35 302.85 363.56
  Q 302.57 363.97 302.62 364.47
  L 302.89 366.89
  C 284.00 351.15 276.91 331.91 276.12 307.64
  A 0.51 0.51 0.0 0 1 276.68 307.12
  Q 278.40 307.33 280.24 307.82
  C 288.69 310.10 297.17 312.55 305.63 314.50
  C 322.26 318.33 338.14 320.98 353.78 329.70
  Z"
/>
<path fill="#ffffff" d="
  M 301.30 466.50
  C 303.34 459.72 307.25 452.35 310.28 445.88
  C 334.76 393.69 376.59 357.64 429.75 336.31
  Q 444.57 330.37 457.01 326.35
  Q 458.49 325.87 459.83 326.94
  Q 462.52 329.09 465.07 331.43
  Q 465.46 331.80 464.99 332.06
  C 430.28 351.75 399.69 376.77 368.20 401.02
  C 343.68 419.90 320.24 439.11 301.91 466.73
  Q 301.71 467.02 301.43 466.81
  Q 301.24 466.68 301.30 466.50
  Z"
/>
<path fill="#d7b7a9" d="
  M 353.78 329.70
  L 361.97 335.06
  A 0.50 0.50 0.0 0 1 361.99 335.87
  C 351.72 343.55 341.64 351.43 332.56 360.56
  Q 327.93 365.21 317.63 377.00
  Q 317.29 377.39 316.87 377.08
  L 302.89 366.89
  L 302.62 364.47
  Q 302.57 363.97 302.85 363.56
  C 313.95 347.35 328.44 336.55 346.73 330.03
  Q 348.26 329.48 350.18 329.64
  Q 351.97 329.78 353.78 329.70
  Z"
/>
<path fill="#d7b7a9" d="
  M 687.10 448.51
  Q 686.85 446.86 685.68 445.25
  C 683.40 442.13 682.17 438.62 680.59 435.14
  C 668.07 407.59 642.82 383.52 617.48 367.83
  Q 599.45 356.66 590.96 353.29
  Q 581.27 349.44 571.48 345.39
  Q 578.81 343.31 589.48 339.19
  C 590.95 338.62 591.99 339.40 593.28 339.97
  C 647.06 363.97 689.12 405.69 714.41 458.77
  C 717.18 464.57 718.20 470.33 710.33 472.07
  Q 706.99 472.80 704.87 470.10
  Q 696.05 458.88 687.10 448.51
  Z"
/>
<path fill="#ffffff" d="
  M 571.48 345.39
  Q 581.27 349.44 590.96 353.29
  Q 599.45 356.66 617.48 367.83
  C 642.82 383.52 668.07 407.59 680.59 435.14
  C 682.17 438.62 683.40 442.13 685.68 445.25
  Q 686.85 446.86 687.10 448.51
  Q 678.02 439.00 669.16 430.10
  C 632.35 393.14 587.89 365.24 537.06 352.77
  Q 534.68 352.19 537.11 351.90
  Q 554.15 349.89 571.48 345.39
  Z"
/>
<path fill="#ffffff" d="
  M 699.95 510.18
  Q 703.02 536.10 700.89 561.00
  C 697.04 605.93 676.87 645.26 639.32 671.33
  Q 631.27 676.92 622.73 681.75
  Q 617.67 684.61 611.73 687.35
  Q 607.77 688.64 602.99 689.62
  C 563.62 697.72 524.20 697.55 486.25 696.93
  C 431.76 696.02 377.42 687.02 334.69 651.32
  C 308.85 629.72 291.69 598.55 287.77 565.25
  Q 285.49 545.92 287.86 524.55
  Q 287.91 524.06 288.39 524.17
  Q 289.85 524.51 291.35 524.82
  C 305.98 527.91 310.37 510.87 314.38 501.28
  C 324.85 476.22 342.91 455.88 364.70 438.71
  Q 395.77 414.25 426.98 389.98
  Q 458.20 365.70 492.17 350.27
  C 495.48 348.76 498.20 349.43 501.50 350.20
  Q 501.77 350.27 501.74 350.55
  C 500.36 362.66 498.97 374.53 498.26 386.85
  Q 495.03 443.17 491.78 499.50
  C 490.59 520.04 519.14 520.79 520.17 500.00
  C 522.16 459.87 524.07 419.71 527.04 379.64
  A 0.75 0.74 -80.4 0 1 527.97 378.97
  C 529.83 379.45 531.96 379.64 533.70 380.09
  C 572.54 390.11 606.34 409.67 636.02 436.50
  Q 659.31 457.57 676.91 479.59
  Q 685.67 490.55 699.95 510.18
  Z
  M 466.49 437.02
  Q 474.25 419.83 481.84 402.59
  C 490.79 382.25 463.97 373.20 456.33 391.09
  Q 448.78 408.77 441.04 426.37
  Q 425.05 462.76 405.93 497.60
  Q 401.60 505.48 405.91 512.51
  C 408.84 517.29 415.15 520.30 420.68 518.76
  C 426.65 517.10 429.67 512.43 432.54 506.83
  Q 452.80 467.30 466.49 437.02
  Z
  M 594.4309 442.7364
  A 13.66 13.66 0.0 0 0 577.8201 432.8737
  L 576.8705 433.1157
  A 13.66 13.66 0.0 0 0 567.0077 449.7265
  L 578.8291 496.1036
  A 13.66 13.66 0.0 0 0 595.4399 505.9663
  L 596.3895 505.7243
  A 13.66 13.66 0.0 0 0 606.2523 489.1135
  L 594.4309 442.7364
  Z"
/>
<path fill="#030e15" d="
  M 466.49 437.02
  Q 452.80 467.30 432.54 506.83
  C 429.67 512.43 426.65 517.10 420.68 518.76
  C 415.15 520.30 408.84 517.29 405.91 512.51
  Q 401.60 505.48 405.93 497.60
  Q 425.05 462.76 441.04 426.37
  Q 448.78 408.77 456.33 391.09
  C 463.97 373.20 490.79 382.25 481.84 402.59
  Q 474.25 419.83 466.49 437.02
  Z"
/>
<rect fill="#030e15" x="-14.15" y="-37.59" transform="translate(586.63,469.42) rotate(-14.3)" width="28.30" height="75.18" rx="13.66"/>
<path fill="#d7b7a9" d="
  M 699.95 510.18
  Q 704.22 514.68 707.84 517.90
  C 714.48 523.82 723.96 523.60 729.73 516.52
  A 0.48 0.48 0.0 0 1 730.57 516.75
  Q 734.31 541.46 731.38 565.74
  C 725.82 611.88 695.30 650.67 654.25 671.73
  Q 634.23 682.00 611.73 687.35
  Q 617.67 684.61 622.73 681.75
  Q 631.27 676.92 639.32 671.33
  C 676.87 645.26 697.04 605.93 700.89 561.00
  Q 703.02 536.10 699.95 510.18
  Z"
/>
<path fill="#030e15" d="
  M 364.64 820.50
  Q 320.78 820.96 307.75 820.74
  Q 303.64 820.67 300.24 818.18
  C 291.78 811.95 294.24 802.96 296.45 794.54
  Q 299.20 784.10 305.17 757.75
  C 308.66 742.38 332.14 742.68 333.94 758.52
  Q 334.45 763.00 333.05 768.29
  Q 329.99 779.76 326.84 791.30
  A 0.56 0.56 0.0 0 0 327.38 792.01
  Q 352.13 792.00 376.99 791.99
  Q 382.74 791.98 385.81 793.31
  C 396.14 797.77 396.55 808.14 395.05 818.78
  Q 393.77 827.87 391.48 836.76
  C 385.40 860.47 366.22 879.85 341.32 882.28
  Q 335.21 882.88 331.37 881.27
  C 319.46 876.25 318.84 858.05 331.74 854.29
  Q 333.70 853.72 340.51 852.82
  C 355.26 850.88 364.12 834.94 365.08 820.97
  Q 365.12 820.49 364.64 820.50
  Z"
/>
<path fill="#030e15" d="
  M 696.67 768.01
  Q 708.66 768.16 720.66 768.02
  Q 726.73 767.96 729.67 769.24
  C 743.52 775.29 739.29 796.08 723.75 796.27
  Q 709.62 796.45 695.48 796.11
  Q 694.92 796.09 694.80 796.64
  Q 693.17 803.78 689.82 810.29
  Q 689.57 810.77 689.90 811.19
  Q 690.77 812.34 691.83 813.16
  Q 699.39 819.01 707.05 824.71
  C 710.62 827.36 714.55 831.13 715.77 835.29
  C 717.52 841.28 714.14 847.88 709.27 851.33
  C 699.17 858.49 690.21 851.20 683.31 844.19
  Q 678.28 839.08 673.40 833.92
  A 0.52 0.52 0.0 0 0 672.64 833.92
  Q 660.70 846.03 645.23 853.45
  C 639.10 856.39 632.10 857.16 626.34 852.15
  C 618.84 845.63 619.63 834.26 628.05 829.06
  Q 633.06 825.96 638.35 823.32
  C 649.95 817.52 659.46 809.05 664.68 796.97
  A 0.52 0.51 -78.3 0 0 664.21 796.25
  Q 650.62 796.18 636.75 796.44
  C 633.10 796.51 628.74 796.56 625.62 794.90
  C 613.68 788.53 616.90 770.49 630.22 768.28
  Q 631.21 768.11 639.31 768.06
  Q 652.55 767.96 665.80 768.02
  Q 666.36 768.02 666.40 767.46
  Q 666.58 764.66 666.67 762.03
  C 667.30 743.22 692.94 741.31 695.68 759.52
  Q 696.28 763.45 696.13 767.45
  Q 696.11 768.01 696.67 768.01
  Z"
/>
<path fill="#030e15" d="
  M 538.82 796.02
  A 0.46 0.46 0.0 0 0 538.36 795.55
  Q 501.18 795.99 463.86 795.32
  Q 459.07 795.24 456.34 793.90
  C 445.38 788.53 445.61 771.97 457.35 767.61
  Q 460.30 766.52 467.29 766.51
  Q 507.76 766.45 548.23 766.50
  Q 554.75 766.50 558.07 767.87
  Q 567.10 771.60 567.16 782.49
  Q 567.26 801.12 567.29 819.75
  C 567.32 833.47 566.67 844.63 558.59 857.14
  C 533.22 896.46 477.24 894.03 453.55 853.95
  C 449.05 846.35 447.76 839.56 447.36 830.04
  Q 446.85 817.81 447.48 809.50
  C 448.57 795.12 471.05 793.21 475.20 806.03
  Q 476.52 810.10 476.20 816.25
  C 475.58 828.34 475.34 838.08 484.08 847.42
  C 503.15 867.80 538.77 855.27 538.64 826.75
  Q 538.57 811.29 538.82 796.02
  Z"
/>
</svg>
